<mxfile host="app.diagrams.net" modified="2022-05-31T14:56:02.452Z" agent="5.0 (Windows)" etag="ZHoHnnIwUiyELMm0SB7y" version="18.0.8" type="github">
  <diagram id="TjGfs_cRIeSkfTV18U19" name="Page-1">
    <mxGraphModel dx="2370" dy="1365" grid="1" gridSize="10" guides="1" tooltips="1" connect="1" arrows="1" fold="1" page="1" pageScale="1" pageWidth="827" pageHeight="1169" math="0" shadow="0">
      <root>
        <mxCell id="0" />
        <mxCell id="1" parent="0" />
        <mxCell id="HxJW-uE0XbYmK7RLiT4D-6" style="edgeStyle=orthogonalEdgeStyle;rounded=0;orthogonalLoop=1;jettySize=auto;html=1;entryX=0.5;entryY=0;entryDx=0;entryDy=0;fontSize=38;strokeWidth=15;" edge="1" parent="1" source="HxJW-uE0XbYmK7RLiT4D-2" target="HxJW-uE0XbYmK7RLiT4D-3">
          <mxGeometry relative="1" as="geometry" />
        </mxCell>
        <mxCell id="HxJW-uE0XbYmK7RLiT4D-2" value="Fichiers &quot;scripts&quot;" style="rounded=1;whiteSpace=wrap;html=1;fontSize=38;" vertex="1" parent="1">
          <mxGeometry x="224" y="40" width="379" height="250" as="geometry" />
        </mxCell>
        <mxCell id="HxJW-uE0XbYmK7RLiT4D-7" style="edgeStyle=orthogonalEdgeStyle;rounded=0;orthogonalLoop=1;jettySize=auto;html=1;entryX=0.5;entryY=0;entryDx=0;entryDy=0;fontSize=38;strokeWidth=15;" edge="1" parent="1" source="HxJW-uE0XbYmK7RLiT4D-3" target="HxJW-uE0XbYmK7RLiT4D-4">
          <mxGeometry relative="1" as="geometry" />
        </mxCell>
        <mxCell id="HxJW-uE0XbYmK7RLiT4D-3" value="Interpréteur" style="rounded=1;whiteSpace=wrap;html=1;fontSize=38;" vertex="1" parent="1">
          <mxGeometry x="224" y="460" width="379" height="250" as="geometry" />
        </mxCell>
        <mxCell id="HxJW-uE0XbYmK7RLiT4D-4" value="Résultat" style="rounded=1;whiteSpace=wrap;html=1;fontSize=38;" vertex="1" parent="1">
          <mxGeometry x="224" y="870" width="379" height="250" as="geometry" />
        </mxCell>
      </root>
    </mxGraphModel>
  </diagram>
</mxfile>
